<?xml version="1.0" encoding="UTF-8"?>
<svg width="700pt" height="700pt" version="1.1" viewBox="0 0 700 700" xmlns="http://www.w3.org/2000/svg">
 <g>
  <path d="m338.61 282.2c3.168 2.7148 7.2031 4.2031 11.375 4.2031 4.168 0 8.2031-1.4883 11.375-4.2031l201.79-172.95c-6.5234-2.8047-13.547-4.25-20.648-4.2539h-385c-7.1016 0-14.129 1.4531-20.648 4.2695z"/>
  <path d="m384.16 308.77c-9.4883 8.1797-21.598 12.684-34.125 12.684s-24.637-4.5039-34.125-12.684l-204.73-175.44c-3.9961 7.4336-6.1172 15.73-6.1758 24.168v245c0 13.926 5.5312 27.277 15.375 37.125 9.8477 9.8438 23.199 15.375 37.125 15.375h385c13.926 0 27.277-5.5312 37.125-15.375 9.8438-9.8477 15.375-23.199 15.375-37.125v-245c-0.058594-8.4375-2.1797-16.734-6.1758-24.168z"/>
 </g>
</svg>
